o Box
v -2.5827196261489584 0.223758727312088 0.8190259266730028
v -2.5827196261489584 -0.0767127126455307 0.8190259266730028
v -2.9652259922221744 0.223758727312088 -0.1049269292203393
v -2.5827196261489584 -0.0767127126455307 0.8190259266730028
v -2.9652259922221744 -0.0767127126455307 -0.1049269292203393
v -2.9652259922221744 0.223758727312088 -0.1049269292203393
v -4.166874296019865 0.223758727312088 0.3925423118258263
v -4.166874296019865 -0.0767127126455307 0.3925423118258263
v -3.7843679299466486 0.223758727312088 1.3164951677191683
v -4.166874296019865 -0.0767127126455307 0.3925423118258263
v -3.7843679299466486 -0.0767127126455307 1.3164951677191683
v -3.7843679299466486 0.223758727312088 1.3164951677191683
v -4.166874296019865 0.223758727312088 0.3925423118258263
v -3.7843679299466486 0.223758727312088 1.3164951677191683
v -2.9652259922221744 0.223758727312088 -0.1049269292203393
v -3.7843679299466486 0.223758727312088 1.3164951677191683
v -2.5827196261489584 0.223758727312088 0.8190259266730028
v -2.9652259922221744 0.223758727312088 -0.1049269292203393
v -3.7843679299466486 -0.0767127126455307 1.3164951677191683
v -4.166874296019865 -0.0767127126455307 0.3925423118258263
v -2.5827196261489584 -0.0767127126455307 0.8190259266730028
v -4.166874296019865 -0.0767127126455307 0.3925423118258263
v -2.9652259922221744 -0.0767127126455307 -0.1049269292203393
v -2.5827196261489584 -0.0767127126455307 0.8190259266730028
v -3.7843679299466486 0.223758727312088 1.3164951677191683
v -3.7843679299466486 -0.0767127126455307 1.3164951677191683
v -2.5827196261489584 0.223758727312088 0.8190259266730028
v -3.7843679299466486 -0.0767127126455307 1.3164951677191683
v -2.5827196261489584 -0.0767127126455307 0.8190259266730028
v -2.5827196261489584 0.223758727312088 0.8190259266730028
v -2.9652259922221744 0.223758727312088 -0.1049269292203393
v -2.9652259922221744 -0.0767127126455307 -0.1049269292203393
v -4.166874296019865 0.223758727312088 0.3925423118258263
v -2.9652259922221744 -0.0767127126455307 -0.1049269292203393
v -4.166874296019865 -0.0767127126455307 0.3925423118258263
v -4.166874296019865 0.223758727312088 0.3925423118258263
vt 0 1
vt 0 0
vt 1 1
vt 0 0
vt 1 0
vt 1 1
vt 0 1
vt 0 0
vt 1 1
vt 0 0
vt 1 0
vt 1 1
vt 0 1
vt 0 0
vt 1 1
vt 0 0
vt 1 0
vt 1 1
vt 0 1
vt 0 0
vt 1 1
vt 0 0
vt 1 0
vt 1 1
vt 0 1
vt 0 0
vt 1 1
vt 0 0
vt 1 0
vt 1 1
vt 0 1
vt 0 0
vt 1 1
vt 0 0
vt 1 0
vt 1 1
vn 0.9239528558933421 0 -0.38250636607321575
vn 0.9239528558933421 0 -0.38250636607321575
vn 0.9239528558933421 0 -0.38250636607321575
vn 0.9239528558933421 0 -0.38250636607321575
vn 0.9239528558933421 0 -0.38250636607321575
vn 0.9239528558933421 0 -0.38250636607321575
vn -0.9239528558933421 0 0.38250636607321575
vn -0.9239528558933421 0 0.38250636607321575
vn -0.9239528558933421 0 0.38250636607321575
vn -0.9239528558933421 0 0.38250636607321575
vn -0.9239528558933421 0 0.38250636607321575
vn -0.9239528558933421 0 0.38250636607321575
vn 0 1 0
vn 0 1 0
vn 0 1 0
vn 0 1 0
vn 0 1 0
vn 0 1 0
vn 0 -1 0
vn 0 -1 0
vn 0 -1 0
vn 0 -1 0
vn 0 -1 0
vn 0 -1 0
vn 0.38250636607321575 0 0.9239528558933421
vn 0.38250636607321575 0 0.9239528558933421
vn 0.38250636607321575 0 0.9239528558933421
vn 0.38250636607321575 0 0.9239528558933421
vn 0.38250636607321575 0 0.9239528558933421
vn 0.38250636607321575 0 0.9239528558933421
vn -0.38250636607321575 0 -0.9239528558933421
vn -0.38250636607321575 0 -0.9239528558933421
vn -0.38250636607321575 0 -0.9239528558933421
vn -0.38250636607321575 0 -0.9239528558933421
vn -0.38250636607321575 0 -0.9239528558933421
vn -0.38250636607321575 0 -0.9239528558933421
f 1/1/1 2/2/2 3/3/3
f 4/4/4 5/5/5 6/6/6
f 7/7/7 8/8/8 9/9/9
f 10/10/10 11/11/11 12/12/12
f 13/13/13 14/14/14 15/15/15
f 16/16/16 17/17/17 18/18/18
f 19/19/19 20/20/20 21/21/21
f 22/22/22 23/23/23 24/24/24
f 25/25/25 26/26/26 27/27/27
f 28/28/28 29/29/29 30/30/30
f 31/31/31 32/32/32 33/33/33
f 34/34/34 35/35/35 36/36/36
o Box
v -3.102701838494102 1.9034727811813354 0.38625491143893365
v -3.102701838494102 0.15744979679584503 0.38625491143893365
v -3.2132007755026755 1.9034727811813354 0.1193422075528292
v -3.102701838494102 0.15744979679584503 0.38625491143893365
v -3.2132007755026755 0.15744979679584503 0.1193422075528292
v -3.2132007755026755 1.9034727811813354 0.1193422075528292
v -3.8406520720910042 1.9034727811813354 0.37910017443943667
v -3.8406520720910042 0.15744979679584503 0.37910017443943667
v -3.7301531350824306 1.9034727811813354 0.646012878325541
v -3.8406520720910042 0.15744979679584503 0.37910017443943667
v -3.7301531350824306 0.15744979679584503 0.646012878325541
v -3.7301531350824306 1.9034727811813354 0.646012878325541
v -3.8406520720910042 1.9034727811813354 0.37910017443943667
v -3.7301531350824306 1.9034727811813354 0.646012878325541
v -3.2132007755026755 1.9034727811813354 0.1193422075528292
v -3.7301531350824306 1.9034727811813354 0.646012878325541
v -3.102701838494102 1.9034727811813354 0.38625491143893365
v -3.2132007755026755 1.9034727811813354 0.1193422075528292
v -3.7301531350824306 0.15744979679584503 0.646012878325541
v -3.8406520720910042 0.15744979679584503 0.37910017443943667
v -3.102701838494102 0.15744979679584503 0.38625491143893365
v -3.8406520720910042 0.15744979679584503 0.37910017443943667
v -3.2132007755026755 0.15744979679584503 0.1193422075528292
v -3.102701838494102 0.15744979679584503 0.38625491143893365
v -3.7301531350824306 1.9034727811813354 0.646012878325541
v -3.7301531350824306 0.15744979679584503 0.646012878325541
v -3.102701838494102 1.9034727811813354 0.38625491143893365
v -3.7301531350824306 0.15744979679584503 0.646012878325541
v -3.102701838494102 0.15744979679584503 0.38625491143893365
v -3.102701838494102 1.9034727811813354 0.38625491143893365
v -3.2132007755026755 1.9034727811813354 0.1193422075528292
v -3.2132007755026755 0.15744979679584503 0.1193422075528292
v -3.8406520720910042 1.9034727811813354 0.37910017443943667
v -3.2132007755026755 0.15744979679584503 0.1193422075528292
v -3.8406520720910042 0.15744979679584503 0.37910017443943667
v -3.8406520720910042 1.9034727811813354 0.37910017443943667
vt 0 1
vt 0 0
vt 1 1
vt 0 0
vt 1 0
vt 1 1
vt 0 1
vt 0 0
vt 1 1
vt 0 0
vt 1 0
vt 1 1
vt 0 1
vt 0 0
vt 1 1
vt 0 0
vt 1 0
vt 1 1
vt 0 1
vt 0 0
vt 1 1
vt 0 0
vt 1 0
vt 1 1
vt 0 1
vt 0 0
vt 1 1
vt 0 0
vt 1 0
vt 1 1
vt 0 1
vt 0 0
vt 1 1
vt 0 0
vt 1 0
vt 1 1
vn 0.9239528558933421 0 -0.38250636607321575
vn 0.9239528558933421 0 -0.38250636607321575
vn 0.9239528558933421 0 -0.38250636607321575
vn 0.9239528558933421 0 -0.38250636607321575
vn 0.9239528558933421 0 -0.38250636607321575
vn 0.9239528558933421 0 -0.38250636607321575
vn -0.9239528558933421 0 0.38250636607321575
vn -0.9239528558933421 0 0.38250636607321575
vn -0.9239528558933421 0 0.38250636607321575
vn -0.9239528558933421 0 0.38250636607321575
vn -0.9239528558933421 0 0.38250636607321575
vn -0.9239528558933421 0 0.38250636607321575
vn 0 1 0
vn 0 1 0
vn 0 1 0
vn 0 1 0
vn 0 1 0
vn 0 1 0
vn 0 -1 0
vn 0 -1 0
vn 0 -1 0
vn 0 -1 0
vn 0 -1 0
vn 0 -1 0
vn 0.38250636607321575 0 0.9239528558933421
vn 0.38250636607321575 0 0.9239528558933421
vn 0.38250636607321575 0 0.9239528558933421
vn 0.38250636607321575 0 0.9239528558933421
vn 0.38250636607321575 0 0.9239528558933421
vn 0.38250636607321575 0 0.9239528558933421
vn -0.38250636607321575 0 -0.9239528558933421
vn -0.38250636607321575 0 -0.9239528558933421
vn -0.38250636607321575 0 -0.9239528558933421
vn -0.38250636607321575 0 -0.9239528558933421
vn -0.38250636607321575 0 -0.9239528558933421
vn -0.38250636607321575 0 -0.9239528558933421
f 37/37/37 38/38/38 39/39/39
f 40/40/40 41/41/41 42/42/42
f 43/43/43 44/44/44 45/45/45
f 46/46/46 47/47/47 48/48/48
f 49/49/49 50/50/50 51/51/51
f 52/52/52 53/53/53 54/54/54
f 55/55/55 56/56/56 57/57/57
f 58/58/58 59/59/59 60/60/60
f 61/61/61 62/62/62 63/63/63
f 64/64/64 65/65/65 66/66/66
f 67/67/67 68/68/68 69/69/69
f 70/70/70 71/71/71 72/72/72
o Box
v -1.7306947318198387 3.036304473876953 0.03659775211599192
v -1.7306947318198387 1.0363045930862427 0.03659775211599192
v -1.8094743657394496 3.036304473876953 -0.1536962513368132
v -1.7306947318198387 1.0363045930862427 0.03659775211599192
v -1.8094743657394496 1.0363045930862427 -0.1536962513368132
v -1.8094743657394496 3.036304473876953 -0.1536962513368132
v -4.898561291073582 3.036304473876953 1.125151913650342
v -4.898561291073582 1.0363045930862427 1.125151913650342
v -4.819781657153971 3.036304473876953 1.3154459171031472
v -4.898561291073582 1.0363045930862427 1.125151913650342
v -4.819781657153971 1.0363045930862427 1.3154459171031472
v -4.819781657153971 3.036304473876953 1.3154459171031472
v -4.898561291073582 3.036304473876953 1.125151913650342
v -4.819781657153971 3.036304473876953 1.3154459171031472
v -1.8094743657394496 3.036304473876953 -0.1536962513368132
v -4.819781657153971 3.036304473876953 1.3154459171031472
v -1.7306947318198387 3.036304473876953 0.03659775211599192
v -1.8094743657394496 3.036304473876953 -0.1536962513368132
v -4.819781657153971 1.0363045930862427 1.3154459171031472
v -4.898561291073582 1.0363045930862427 1.125151913650342
v -1.7306947318198387 1.0363045930862427 0.03659775211599192
v -4.898561291073582 1.0363045930862427 1.125151913650342
v -1.8094743657394496 1.0363045930862427 -0.1536962513368132
v -1.7306947318198387 1.0363045930862427 0.03659775211599192
v -4.819781657153971 3.036304473876953 1.3154459171031472
v -4.819781657153971 1.0363045930862427 1.3154459171031472
v -1.7306947318198387 3.036304473876953 0.03659775211599192
v -4.819781657153971 1.0363045930862427 1.3154459171031472
v -1.7306947318198387 1.0363045930862427 0.03659775211599192
v -1.7306947318198387 3.036304473876953 0.03659775211599192
v -1.8094743657394496 3.036304473876953 -0.1536962513368132
v -1.8094743657394496 1.0363045930862427 -0.1536962513368132
v -4.898561291073582 3.036304473876953 1.125151913650342
v -1.8094743657394496 1.0363045930862427 -0.1536962513368132
v -4.898561291073582 1.0363045930862427 1.125151913650342
v -4.898561291073582 3.036304473876953 1.125151913650342
vt 0 1
vt 0 0
vt 1 1
vt 0 0
vt 1 0
vt 1 1
vt 0 1
vt 0 0
vt 1 1
vt 0 0
vt 1 0
vt 1 1
vt 0 1
vt 0 0
vt 1 1
vt 0 0
vt 1 0
vt 1 1
vt 0 1
vt 0 0
vt 1 1
vt 0 0
vt 1 0
vt 1 1
vt 0 1
vt 0 0
vt 1 1
vt 0 0
vt 1 0
vt 1 1
vt 0 1
vt 0 0
vt 1 1
vt 0 0
vt 1 0
vt 1 1
vn 0.9239528558933421 0 -0.38250636607321575
vn 0.9239528558933421 0 -0.38250636607321575
vn 0.9239528558933421 0 -0.38250636607321575
vn 0.9239528558933421 0 -0.38250636607321575
vn 0.9239528558933421 0 -0.38250636607321575
vn 0.9239528558933421 0 -0.38250636607321575
vn -0.9239528558933421 0 0.38250636607321575
vn -0.9239528558933421 0 0.38250636607321575
vn -0.9239528558933421 0 0.38250636607321575
vn -0.9239528558933421 0 0.38250636607321575
vn -0.9239528558933421 0 0.38250636607321575
vn -0.9239528558933421 0 0.38250636607321575
vn 0 1 0
vn 0 1 0
vn 0 1 0
vn 0 1 0
vn 0 1 0
vn 0 1 0
vn 0 -1 0
vn 0 -1 0
vn 0 -1 0
vn 0 -1 0
vn 0 -1 0
vn 0 -1 0
vn 0.38250636607321575 0 0.9239528558933421
vn 0.38250636607321575 0 0.9239528558933421
vn 0.38250636607321575 0 0.9239528558933421
vn 0.38250636607321575 0 0.9239528558933421
vn 0.38250636607321575 0 0.9239528558933421
vn 0.38250636607321575 0 0.9239528558933421
vn -0.38250636607321575 0 -0.9239528558933421
vn -0.38250636607321575 0 -0.9239528558933421
vn -0.38250636607321575 0 -0.9239528558933421
vn -0.38250636607321575 0 -0.9239528558933421
vn -0.38250636607321575 0 -0.9239528558933421
vn -0.38250636607321575 0 -0.9239528558933421
f 73/73/73 74/74/74 75/75/75
f 76/76/76 77/77/77 78/78/78
f 79/79/79 80/80/80 81/81/81
f 82/82/82 83/83/83 84/84/84
f 85/85/85 86/86/86 87/87/87
f 88/88/88 89/89/89 90/90/90
f 91/91/91 92/92/92 93/93/93
f 94/94/94 95/95/95 96/96/96
f 97/97/97 98/98/98 99/99/99
f 100/100/100 101/101/101 102/102/102
f 103/103/103 104/104/104 105/105/105
f 106/106/106 107/107/107 108/108/108
o Box
v 0.5851545388227323 0.22375872965023455 0.5
v 0.5851545388227323 0.22375872965023455 -0.5
v 0.5851545388227323 -0.07671271117443143 0.5
v 0.5851545388227323 -0.07671271117443143 -0.5
v -0.715397000450848 0.22375872965023455 -0.5
v -0.715397000450848 0.22375872965023455 0.5
v -0.715397000450848 -0.07671271117443143 -0.5
v -0.715397000450848 -0.07671271117443143 0.5
v -0.715397000450848 0.22375872965023455 -0.5
v 0.5851545388227323 0.22375872965023455 -0.5
v -0.715397000450848 0.22375872965023455 0.5
v 0.5851545388227323 0.22375872965023455 0.5
v -0.715397000450848 -0.07671271117443143 0.5
v 0.5851545388227323 -0.07671271117443143 0.5
v -0.715397000450848 -0.07671271117443143 -0.5
v 0.5851545388227323 -0.07671271117443143 -0.5
v -0.715397000450848 0.22375872965023455 0.5
v 0.5851545388227323 0.22375872965023455 0.5
v -0.715397000450848 -0.07671271117443143 0.5
v 0.5851545388227323 -0.07671271117443143 0.5
v 0.5851545388227323 0.22375872965023455 -0.5
v -0.715397000450848 0.22375872965023455 -0.5
v 0.5851545388227323 -0.07671271117443143 -0.5
v -0.715397000450848 -0.07671271117443143 -0.5
vt 0 1
vt 1 1
vt 0 0
vt 1 0
vt 0 1
vt 1 1
vt 0 0
vt 1 0
vt 0 1
vt 1 1
vt 0 0
vt 1 0
vt 0 1
vt 1 1
vt 0 0
vt 1 0
vt 0 1
vt 1 1
vt 0 0
vt 1 0
vt 0 1
vt 1 1
vt 0 0
vt 1 0
vn 0.9999999999999999 0 0
vn 0.9999999999999999 0 0
vn 0.9999999999999999 0 0
vn 0.9999999999999999 0 0
vn -0.9999999999999999 0 0
vn -0.9999999999999999 0 0
vn -0.9999999999999999 0 0
vn -0.9999999999999999 0 0
vn 0 1 0
vn 0 1 0
vn 0 1 0
vn 0 1 0
vn 0 -1 0
vn 0 -1 0
vn 0 -1 0
vn 0 -1 0
vn 0 0 1
vn 0 0 1
vn 0 0 1
vn 0 0 1
vn 0 0 -1
vn 0 0 -1
vn 0 0 -1
vn 0 0 -1
f 109/109/109 111/111/111 110/110/110
f 111/111/111 112/112/112 110/110/110
f 113/113/113 115/115/115 114/114/114
f 115/115/115 116/116/116 114/114/114
f 117/117/117 119/119/119 118/118/118
f 119/119/119 120/120/120 118/118/118
f 121/121/121 123/123/123 122/122/122
f 123/123/123 124/124/124 122/122/122
f 125/125/125 127/127/127 126/126/126
f 127/127/127 128/128/128 126/126/126
f 129/129/129 131/131/131 130/130/130
f 131/131/131 132/132/132 130/130/130
o Box
v 0.2702531389681968 1.903472808799999 -0.09875652436095567
v 0.2702531389681968 1.903472808799999 -0.3876378369207109
v 0.2702531389681968 0.15744979827225403 -0.09875652436095567
v 0.2702531389681968 0.15744979827225403 -0.3876378369207109
v -0.4088413404844746 1.903472808799999 -0.3876378369207109
v -0.4088413404844746 1.903472808799999 -0.09875652436095567
v -0.4088413404844746 0.15744979827225403 -0.3876378369207109
v -0.4088413404844746 0.15744979827225403 -0.09875652436095567
v -0.4088413404844746 1.903472808799999 -0.3876378369207109
v 0.2702531389681968 1.903472808799999 -0.3876378369207109
v -0.4088413404844746 1.903472808799999 -0.09875652436095567
v 0.2702531389681968 1.903472808799999 -0.09875652436095567
v -0.4088413404844746 0.15744979827225403 -0.09875652436095567
v 0.2702531389681968 0.15744979827225403 -0.09875652436095567
v -0.4088413404844746 0.15744979827225403 -0.3876378369207109
v 0.2702531389681968 0.15744979827225403 -0.3876378369207109
v -0.4088413404844746 1.903472808799999 -0.09875652436095567
v 0.2702531389681968 1.903472808799999 -0.09875652436095567
v -0.4088413404844746 0.15744979827225403 -0.09875652436095567
v 0.2702531389681968 0.15744979827225403 -0.09875652436095567
v 0.2702531389681968 1.903472808799999 -0.3876378369207109
v -0.4088413404844746 1.903472808799999 -0.3876378369207109
v 0.2702531389681968 0.15744979827225403 -0.3876378369207109
v -0.4088413404844746 0.15744979827225403 -0.3876378369207109
vt 0 1
vt 1 1
vt 0 0
vt 1 0
vt 0 1
vt 1 1
vt 0 0
vt 1 0
vt 0 1
vt 1 1
vt 0 0
vt 1 0
vt 0 1
vt 1 1
vt 0 0
vt 1 0
vt 0 1
vt 1 1
vt 0 0
vt 1 0
vt 0 1
vt 1 1
vt 0 0
vt 1 0
vn 0.9999999999999999 0 0
vn 0.9999999999999999 0 0
vn 0.9999999999999999 0 0
vn 0.9999999999999999 0 0
vn -0.9999999999999999 0 0
vn -0.9999999999999999 0 0
vn -0.9999999999999999 0 0
vn -0.9999999999999999 0 0
vn 0 1 0
vn 0 1 0
vn 0 1 0
vn 0 1 0
vn 0 -1 0
vn 0 -1 0
vn 0 -1 0
vn 0 -1 0
vn 0 0 1
vn 0 0 1
vn 0 0 1
vn 0 0 1
vn 0 0 -1
vn 0 0 -1
vn 0 0 -1
vn 0 0 -1
f 133/133/133 135/135/135 134/134/134
f 135/135/135 136/136/136 134/134/134
f 137/137/137 139/139/139 138/138/138
f 139/139/139 140/140/140 138/138/138
f 141/141/141 143/143/143 142/142/142
f 143/143/143 144/144/144 142/142/142
f 145/145/145 147/147/147 146/146/146
f 147/147/147 148/148/148 146/146/146
f 149/149/149 151/151/151 150/150/150
f 151/151/151 152/152/152 150/150/150
f 153/153/153 155/155/155 154/154/154
f 155/155/155 156/156/156 154/154/154
o Box
v 1.671669093088289 3.036304578299702 0.10297819988746997
v 1.671669093088289 3.036304578299702 -0.10297819988746997
v 1.671669093088289 1.0363045782997018 0.10297819988746997
v 1.671669093088289 1.0363045782997018 -0.10297819988746997
v -1.671669093088289 3.036304578299702 -0.10297819988746997
v -1.671669093088289 3.036304578299702 0.10297819988746997
v -1.671669093088289 1.0363045782997018 -0.10297819988746997
v -1.671669093088289 1.0363045782997018 0.10297819988746997
v -1.671669093088289 3.036304578299702 -0.10297819988746997
v 1.671669093088289 3.036304578299702 -0.10297819988746997
v -1.671669093088289 3.036304578299702 0.10297819988746997
v 1.671669093088289 3.036304578299702 0.10297819988746997
v -1.671669093088289 1.0363045782997018 0.10297819988746997
v 1.671669093088289 1.0363045782997018 0.10297819988746997
v -1.671669093088289 1.0363045782997018 -0.10297819988746997
v 1.671669093088289 1.0363045782997018 -0.10297819988746997
v -1.671669093088289 3.036304578299702 0.10297819988746997
v 1.671669093088289 3.036304578299702 0.10297819988746997
v -1.671669093088289 1.0363045782997018 0.10297819988746997
v 1.671669093088289 1.0363045782997018 0.10297819988746997
v 1.671669093088289 3.036304578299702 -0.10297819988746997
v -1.671669093088289 3.036304578299702 -0.10297819988746997
v 1.671669093088289 1.0363045782997018 -0.10297819988746997
v -1.671669093088289 1.0363045782997018 -0.10297819988746997
vt 0 1
vt 1 1
vt 0 0
vt 1 0
vt 0 1
vt 1 1
vt 0 0
vt 1 0
vt 0 1
vt 1 1
vt 0 0
vt 1 0
vt 0 1
vt 1 1
vt 0 0
vt 1 0
vt 0 1
vt 1 1
vt 0 0
vt 1 0
vt 0 1
vt 1 1
vt 0 0
vt 1 0
vn 1 0 0
vn 1 0 0
vn 1 0 0
vn 1 0 0
vn -1 0 0
vn -1 0 0
vn -1 0 0
vn -1 0 0
vn 0 1 0
vn 0 1 0
vn 0 1 0
vn 0 1 0
vn 0 -1 0
vn 0 -1 0
vn 0 -1 0
vn 0 -1 0
vn 0 0 1
vn 0 0 1
vn 0 0 1
vn 0 0 1
vn 0 0 -1
vn 0 0 -1
vn 0 0 -1
vn 0 0 -1
f 157/157/157 159/159/159 158/158/158
f 159/159/159 160/160/160 158/158/158
f 161/161/161 163/163/163 162/162/162
f 163/163/163 164/164/164 162/162/162
f 165/165/165 167/167/167 166/166/166
f 167/167/167 168/168/168 166/166/166
f 169/169/169 171/171/171 170/170/170
f 171/171/171 172/172/172 170/170/170
f 173/173/173 175/175/175 174/174/174
f 175/175/175 176/176/176 174/174/174
f 177/177/177 179/179/179 178/178/178
f 179/179/179 180/180/180 178/178/178
